<svg width="1844" height="1886" viewBox="0 0 1844 1886" fill="none" xmlns="http://www.w3.org/2000/svg">
<rect x="172" y="193" width="1500" height="1500" rx="70" fill="url(#paint0_linear_1_39)"/>
<path d="M1315.68 640.215H527.321H524.896C522.783 639.928 520.641 639.928 518.528 640.215L513.374 642.338C511.724 643.132 510.193 644.153 508.825 645.37C507.1 646.543 505.566 647.975 504.277 649.615L502.458 651.434C502.344 652.34 502.344 653.257 502.458 654.163C501.467 656.002 500.655 657.931 500.032 659.924C498.76 662.338 497.744 664.879 497 667.505V670.537V1216.32C497 1224.36 500.195 1232.08 505.881 1237.76C511.567 1243.45 519.28 1246.64 527.321 1246.64H1315.68C1323.72 1246.64 1331.43 1243.45 1337.12 1237.76C1342.81 1232.08 1346 1224.36 1346 1216.32V670.537C1346 662.495 1342.81 654.783 1337.12 649.096C1331.43 643.41 1323.72 640.215 1315.68 640.215ZM921.5 907.347L624.35 700.858H1257.76L921.5 907.347ZM557.643 1186V728.451L904.217 968.293C905.973 969.323 907.797 970.235 909.675 971.022H912.1C915.081 972.393 918.249 973.313 921.5 973.751C925.812 973.636 930.051 972.602 933.932 970.719H936.054L1285.36 755.133V1186H557.643Z" fill="white"/>
<defs>
<linearGradient id="paint0_linear_1_39" x1="1672" y1="193" x2="172" y2="1693" gradientUnits="userSpaceOnUse">
<stop stop-color="#19B2D3"/>
<stop offset="1.0001" stop-color="#3454D1"/>
</linearGradient>
</defs>
</svg>
