<svg width="2026" height="1872" viewBox="0 0 2026 1872" fill="none" xmlns="http://www.w3.org/2000/svg">
<rect x="263" y="186" width="1500" height="1500" rx="70" fill="url(#paint0_linear_1_33)"/>
<path d="M893.56 1060.43C855.515 1060.43 824.553 1029.5 824.553 991.453C824.553 953.434 855.515 922.498 893.56 922.498C931.58 922.498 962.515 953.434 962.515 991.453C962.542 1029.5 931.606 1060.43 893.56 1060.43ZM1392.72 1012.36C1393.75 1020.24 1394.28 1028.01 1394.28 1035.57C1394.28 1179 1222.68 1295.69 1011.78 1295.69C800.887 1295.69 629.283 1179 629.283 1035.57C629.283 1027.75 629.866 1019.63 631.007 1011.38C603.945 991.426 588 960.172 588 926.531C588 868.215 635.438 820.777 693.754 820.777C716.517 820.777 738.618 828.18 756.818 841.737C822.377 801.861 906.004 778.619 993.875 775.86L1061.26 584.384L1222.73 622.987C1237.96 594.174 1267.68 576 1300.71 576C1349.39 576 1388.98 615.611 1388.98 664.269C1388.98 712.954 1349.37 752.539 1300.71 752.539C1254.94 752.539 1217.11 717.412 1212.84 672.706L1093.87 644.265L1047.31 776.603C1128.95 781.75 1206.39 804.805 1267.54 842.188C1285.85 828.312 1308.19 820.751 1331.25 820.751C1389.56 820.751 1437 868.189 1437 926.504C1437 960.862 1420.58 992.461 1392.72 1012.36ZM638.675 926.531C638.675 937.117 641.805 947.411 647.483 956.219C661.412 926.69 683.247 898.832 711.609 874.397C705.905 872.434 699.909 871.425 693.754 871.425C663.375 871.425 638.675 896.153 638.675 926.531ZM1343.61 1035.57C1343.61 920.084 1194.74 826.11 1011.78 826.11C828.824 826.11 679.957 920.084 679.957 1035.57C679.957 1151.06 828.824 1245.01 1011.78 1245.01C1194.77 1245.01 1343.61 1151.06 1343.61 1035.57ZM1312.38 874.768C1340.93 899.469 1362.82 927.619 1376.67 957.493C1382.9 948.419 1386.33 937.674 1386.33 926.531C1386.33 896.153 1361.62 871.425 1331.25 871.425C1324.75 871.425 1318.38 872.566 1312.38 874.768ZM1263.09 664.269C1263.09 684.99 1279.96 701.864 1300.68 701.864C1321.43 701.864 1338.28 684.99 1338.28 664.269C1338.28 643.522 1321.4 626.675 1300.68 626.675C1279.96 626.648 1263.09 643.522 1263.09 664.269ZM1139.13 1114.4C1132.26 1114.4 1125.84 1117.1 1121.23 1121.8C1119.85 1123.13 1086.73 1154.35 1011.12 1154.35C936.435 1154.35 906.322 1123.15 906.242 1123.05C901.44 1117.53 894.462 1114.35 887.14 1114.35C881.117 1114.35 875.28 1116.49 870.69 1120.42C865.543 1124.83 862.413 1130.95 861.882 1137.72C861.351 1144.49 863.501 1151.04 867.905 1156.16C869.072 1157.54 880.136 1170.03 903.51 1181.97C933.49 1197.28 969.705 1205.03 1011.15 1205.03C1052.32 1205.03 1088.96 1197.41 1120.11 1182.37C1144.23 1170.72 1156.25 1158.57 1157.55 1157.19C1167.07 1147.22 1166.78 1131.25 1156.86 1121.56C1152.05 1116.95 1145.79 1114.4 1139.13 1114.4ZM1138.34 922.498C1100.29 922.498 1069.33 953.434 1069.33 991.453C1069.33 1029.5 1100.29 1060.43 1138.34 1060.43C1176.36 1060.43 1207.29 1029.5 1207.29 991.453C1207.32 953.434 1176.38 922.498 1138.34 922.498Z" fill="white"/>
<defs>
<linearGradient id="paint0_linear_1_33" x1="1763" y1="186" x2="263" y2="1686" gradientUnits="userSpaceOnUse">
<stop stop-color="#19B2D3"/>
<stop offset="1.0001" stop-color="#3454D1"/>
</linearGradient>
</defs>
</svg>
