<svg width="2590" height="1088" viewBox="0 0 2590 1088" fill="none" xmlns="http://www.w3.org/2000/svg">
<path fill-rule="evenodd" clip-rule="evenodd" d="M665.089 0.475542C704.469 -9.64446 733.899 142.976 754.049 341.966C758.069 381.678 759.901 422.525 760.117 463.315C781.807 537.806 807.265 611.051 834.893 671.628C1157.62 605.89 1558.1 527.396 1838.68 468.426C2323.89 366.447 2602.91 312.597 2588.72 325.325C2564.87 346.705 2263.87 417.435 2050.04 456.905C1836.21 496.385 1286.02 618.925 1055.74 657.575C983.992 669.617 914.64 683.416 847.335 697.728C865.693 734.501 884.865 765.204 904.419 786.695C920.078 803.905 937.916 819.615 957.573 833.597C1079.86 767.117 1245.53 683.851 1397.05 641.136C1642.13 572.046 1672.55 641.126 1623.21 713.506C1573.87 785.886 1415.14 932.275 1207.89 929.806C1110.88 928.649 1033.86 901.724 973.736 863.454C823.072 943.005 667.469 1026.76 514.589 1062.21C276.909 1117.31 61.439 1077.01 8.799 1000.53C-43.8404 924.045 149.429 834.396 329.539 782.586C393.618 764.153 541.708 731.979 727.77 693.582C731.934 630.904 733.045 542.81 731.881 460.752C718.461 413.635 707.035 366.035 698.339 321.176C672.709 189.006 624.75 10.8463 665.089 0.475542ZM725.251 724.461C621.787 747.527 522.977 769.951 427.409 786.695C234.969 820.415 30.189 929.796 31.009 970.916C31.8394 1012.05 94.3302 1072.9 305.699 1064.68C450.975 1059.03 591.582 1012.97 689.877 972.167C695.608 931.702 713.986 822.686 724.31 733.246C724.635 730.425 724.947 727.494 725.251 724.461ZM825.256 702.456C797.845 708.364 770.771 714.336 744.011 720.284C736.974 779.31 728.922 830.545 722.659 868.126C714.454 917.364 706.586 949.008 700.438 967.736C740.271 950.844 772.453 935.165 794.219 924.046C821.186 910.27 874.377 879.152 942.77 841.675C891.049 801.638 854.225 753.625 829.579 710.216C828.134 707.671 826.694 705.083 825.256 702.456ZM1613.34 648.525C1586.2 613.166 1440.63 652.636 1218.58 743.926C1144.71 774.296 1068.38 813.586 990.654 854.529C1083.01 906.344 1205.41 924.03 1329.61 889.496C1498.2 842.616 1640.48 683.885 1613.34 648.525ZM758.511 545.723C756.38 595.763 752.342 644.462 747.501 689.517C768.482 685.199 789.913 680.807 811.73 676.352C792.845 637.96 774.83 593.183 758.511 545.723ZM723.089 270.386C710.419 158.336 680.729 52.2757 675.789 53.9257C670.85 55.5764 680.59 85.7871 699.949 202.886C706.838 244.546 716.484 292.396 728.356 342.631C726.927 313.557 725.153 288.634 723.089 270.386Z" fill="white"/>
</svg>
