<svg width="2590" height="1088" viewBox="0 0 2590 1088" fill="none" xmlns="http://www.w3.org/2000/svg">
<path d="M2588.72 325.326C2602.92 312.596 2323.9 366.446 1838.68 468.426C1353.46 570.406 509.649 730.776 329.539 782.586C149.429 834.396 -43.8408 924.046 8.79918 1000.53C61.4392 1077.01 276.909 1117.31 514.589 1062.21C752.269 1007.11 996.529 835.216 1218.58 743.926C1440.63 652.636 1586.2 613.166 1613.34 648.526C1640.48 683.886 1498.2 842.616 1329.61 889.496C1161.01 936.376 995.709 887.026 904.419 786.696C813.129 686.366 730.109 385.296 699.949 202.886C680.589 85.7855 670.849 55.5756 675.789 53.9256C680.729 52.2756 710.419 158.336 723.089 270.386C733.539 362.786 736.639 626.326 724.309 733.246C711.969 840.156 688.119 975.036 688.119 987.376C688.119 999.716 704.569 976.686 722.659 868.126C740.749 759.566 773.799 537.066 754.049 341.966C733.899 142.976 704.469 -9.64446 665.089 0.475542C624.749 10.8455 672.709 189.006 698.339 321.176C724.279 454.986 774.479 613.176 829.579 710.216C884.679 807.266 1000.64 927.336 1207.89 929.806C1415.14 932.276 1573.87 785.886 1623.21 713.506C1672.55 641.126 1642.13 572.046 1397.05 641.136C1151.97 710.226 869.879 885.396 794.219 924.046C718.559 962.696 517.069 1056.46 305.699 1064.68C94.3292 1072.9 31.8392 1012.05 31.0092 970.916C30.1892 929.796 234.969 820.416 427.409 786.696C619.859 752.976 825.459 696.226 1055.74 657.576C1286.02 618.926 1836.21 496.386 2050.04 456.906C2263.87 417.436 2564.87 346.706 2588.72 325.326Z" fill="black"/>
</svg>
