<svg width="2009" height="1993" viewBox="0 0 2009 1993" fill="none" xmlns="http://www.w3.org/2000/svg">
<rect x="254" y="247" width="1500" height="1500" rx="70" fill="url(#paint0_linear_1_42)"/>
<path d="M1372.58 1204.59C1408.09 1142.5 1428 1071.58 1428 996.243C1428 920.908 1408.09 848.858 1372.58 787.893C1371.45 785.636 1370.32 784.609 1369.29 783.48C1296.11 658.264 1159.81 574 1003.5 574C848.315 574 712.015 658.264 637.707 783.479C636.578 784.608 635.45 786.763 634.423 787.892C598.911 848.857 579 919.778 579 996.241C579 1230.15 768.568 1419.71 1002.47 1419.71C1157.66 1419.71 1293.96 1335.45 1368.27 1210.24C1370.32 1207.88 1371.45 1206.75 1372.58 1204.59ZM622.107 1016.15H765.181C767.438 1071.58 778.524 1125.87 796.177 1176.88H666.445C640.991 1128.03 625.494 1073.73 622.107 1016.15ZM666.445 815.5H796.176C777.29 866.51 767.336 919.675 765.18 975.098H622.107C625.494 917.418 640.991 863.124 666.445 815.5ZM1385.92 975.098H1245.1C1242.85 919.675 1231.76 866.51 1214.11 815.5H1341.58C1367.04 863.124 1382.53 917.418 1385.92 975.098ZM1204.05 975.098H1024.44V815.5H1169.67C1189.68 865.381 1201.89 918.547 1204.05 975.098ZM1024.54 774.447V619.262C1077.7 662.472 1121.02 714.61 1150.88 773.317H1024.54V774.447ZM983.486 621.519V773.42H859.298C889.267 715.739 931.45 664.729 983.486 621.519ZM983.486 815.5V975.098H806.132C808.389 919.675 820.502 865.381 840.515 815.5H983.486ZM806.132 1016.15H983.486V1176.88H840.515C820.604 1125.87 808.389 1071.58 806.132 1016.15ZM983.486 1217.83V1369.73C931.347 1327.65 889.267 1275.51 859.298 1217.83H983.486ZM1024.54 1371.89V1217.83H1150.88C1119.89 1276.64 1077.7 1328.68 1024.54 1371.89ZM1024.54 1176.88V1016.15H1204.15C1201.89 1072.7 1189.78 1127 1169.77 1176.88H1024.54ZM1245.1 1016.15H1385.92C1382.64 1073.83 1367.04 1129.26 1340.45 1176.88H1214.11C1231.76 1125.87 1242.85 1071.58 1245.1 1016.15ZM1316.03 774.447H1196.35C1170.9 719.023 1134.26 666.885 1089.92 623.675C1181.88 644.818 1261.73 699.112 1316.03 774.447ZM921.392 622.649C875.925 666.986 840.515 717.996 813.831 774.549H692.001C746.295 697.983 827.172 642.559 921.392 622.649ZM692.001 1217.83H812.803C839.386 1274.38 874.897 1325.39 920.364 1369.73C827.172 1348.69 746.295 1293.27 692.001 1217.83ZM1089.92 1368.6C1134.26 1324.27 1170.8 1273.26 1196.35 1217.83H1315C1261.73 1292.14 1181.88 1347.56 1089.92 1368.6Z" fill="white"/>
<defs>
<linearGradient id="paint0_linear_1_42" x1="1754" y1="247" x2="254" y2="1747" gradientUnits="userSpaceOnUse">
<stop stop-color="#19B2D3"/>
<stop offset="1.0001" stop-color="#3454D1"/>
</linearGradient>
</defs>
</svg>
